<svg width="76" height="70" viewBox="0 0 76 70" fill="none" xmlns="http://www.w3.org/2000/svg">
<g opacity="0.5">
<path opacity="0.5" d="M38 70C58.9868 70 76 54.33 76 35C76 15.67 58.9868 0 38 0C17.0132 0 0 15.67 0 35C0 54.33 17.0132 70 38 70Z" fill="url(#paint0_linear)"/>
</g>
<path d="M38.074 69.0375C58.6183 69.0375 75.2727 53.6979 75.2727 34.7756C75.2727 15.8532 58.6183 0.513672 38.074 0.513672C17.5298 0.513672 0.875427 15.8532 0.875427 34.7756C0.875427 53.6979 17.5298 69.0375 38.074 69.0375Z" fill="#F5F5F5"/>
<path d="M38.1089 69.1737C45.3775 69.1845 52.4888 67.2244 58.5559 63.5376C57.1851 56.6378 51.9685 56.2447 51.9685 56.2447H23.2018C23.2018 56.2447 18.2792 56.6168 16.7418 62.9639C22.997 67.0166 30.4612 69.1858 38.1089 69.1737Z" fill="#D3D02E"/>
<path d="M37.7136 50.5916C47.6298 50.5916 55.6684 43.1876 55.6684 34.0543C55.6684 24.921 47.6298 17.5171 37.7136 17.5171C27.7975 17.5171 19.7589 24.921 19.7589 34.0543C19.7589 43.1876 27.7975 50.5916 37.7136 50.5916Z" fill="#333333"/>
<path opacity="0.1" d="M31.9189 47.8286H43.4235V56.3059C43.4235 57.7107 42.8177 59.058 41.7394 60.0515C40.6611 61.0451 39.1986 61.6035 37.6734 61.604C36.1478 61.604 34.6847 61.0458 33.6059 60.0522C32.5271 59.0586 31.9211 57.711 31.9211 56.3059V47.8286H31.9189Z" fill="black"/>
<path d="M32.2837 47.4355H43.063C43.1598 47.4355 43.2526 47.4709 43.321 47.5339C43.3894 47.5969 43.4278 47.6824 43.4278 47.7715V55.9127C43.4279 56.6088 43.2792 57.298 42.99 57.941C42.7009 58.5841 42.277 59.1683 41.7426 59.6604C41.2082 60.1526 40.5738 60.5429 39.8756 60.8091C39.1773 61.0753 38.429 61.2121 37.6733 61.2119C36.1478 61.2119 34.6846 60.6537 33.6059 59.6601C32.5271 58.6665 31.9211 57.3189 31.9211 55.9137V47.7715C31.9211 47.6827 31.9592 47.5976 32.0271 47.5346C32.0951 47.4717 32.1873 47.436 32.2837 47.4355Z" fill="#FDB797"/>
<path opacity="0.1" d="M31.9396 51.8301C35.6474 53.106 39.7288 53.1163 43.4441 51.8592V50.5555H31.9396V51.8301Z" fill="black"/>
<path d="M37.7136 52.5391C46.821 52.5391 54.2039 45.739 54.2039 37.3507C54.2039 28.9624 46.821 22.1623 37.7136 22.1623C28.6063 22.1623 21.2234 28.9624 21.2234 37.3507C21.2234 45.739 28.6063 52.5391 37.7136 52.5391Z" fill="#FDB797"/>
<path opacity="0.1" d="M25.9674 23.5352C25.9674 23.5352 32.9173 36.5284 52.5216 28.9828L47.9573 22.391L39.8662 19.7163L25.9674 23.5352Z" fill="black"/>
<path d="M25.9674 23.3447C25.9674 23.3447 32.9173 36.3378 52.5216 28.7902L47.9573 22.1984L39.8662 19.5238L25.9674 23.3447Z" fill="#333333"/>
<path d="M25.9064 22.4642C26.375 21.1281 27.1849 19.9151 28.2681 18.9271C31.5117 15.9736 36.8295 15.3509 39.557 11.9832C40.2103 12.9179 39.7051 14.355 38.5771 14.7562C41.1903 14.7401 44.2183 14.5295 45.6958 12.5499C46.061 13.3328 46.1774 14.1952 46.0315 15.0366C45.8855 15.8781 45.4833 16.6642 44.8716 17.3034C47.1875 17.4037 49.6624 18.8479 49.8083 20.9789C49.9085 22.399 48.9372 23.7428 47.6753 24.5572C46.4133 25.3715 44.8759 25.7456 43.3679 26.0514C38.9647 26.947 23.033 30.6947 25.9064 22.4642Z" fill="#333333"/>
<path d="M21.2168 39.9862C22.0641 39.9862 22.751 38.8 22.751 37.3367C22.751 35.8734 22.0641 34.6871 21.2168 34.6871C20.3695 34.6871 19.6827 35.8734 19.6827 37.3367C19.6827 38.8 20.3695 39.9862 21.2168 39.9862Z" fill="#FDB797"/>
<path d="M54.2017 39.9862C55.049 39.9862 55.7359 38.8 55.7359 37.3367C55.7359 35.8734 55.049 34.6871 54.2017 34.6871C53.3544 34.6871 52.6676 35.8734 52.6676 37.3367C52.6676 38.8 53.3544 39.9862 54.2017 39.9862Z" fill="#FDB797"/>
<defs>
<linearGradient id="paint0_linear" x1="38" y1="70" x2="38" y2="0" gradientUnits="userSpaceOnUse">
<stop stop-color="#808080" stop-opacity="0.25"/>
<stop offset="0.54" stop-color="#808080" stop-opacity="0.12"/>
<stop offset="1" stop-color="#808080" stop-opacity="0.1"/>
</linearGradient>
</defs>
</svg>
